<svg xmlns="http://www.w3.org/2000/svg" xmlns:xlink="http://www.w3.org/1999/xlink" width="16" height="16" viewBox="0 0 16 16">
  <defs>
    <clipPath id="clip-error_icon">
      <rect width="16" height="16"/>
    </clipPath>
  </defs>
  <g id="error_icon" clip-path="url(#clip-error_icon)">
    <path id="Path_1608" data-name="Path 1608" d="M229.351-102.4a7.5,7.5,0,0,0-7.5,7.5,7.5,7.5,0,0,0,7.5,7.5,7.5,7.5,0,0,0,7.5-7.5A7.5,7.5,0,0,0,229.351-102.4Zm3.136,10.92a.7.7,0,0,1-.493.2.705.705,0,0,1-.5-.209l-2.153-2.182-2.257,2.318a.7.7,0,0,1-.5.213.7.7,0,0,1-.491-.2.7.7,0,0,1-.013-.995l2.278-2.338-2.087-2.115a.7.7,0,0,1,.007-.994.7.7,0,0,1,.995.007l2.067,2.094,2.037-2.092a.7.7,0,0,1,.994-.013.7.7,0,0,1,.013.995l-2.057,2.111,2.172,2.2A.7.7,0,0,1,232.487-91.484Z" transform="translate(-220.851 103.404)" fill="#e84d4d"/>
  </g>
</svg>
