<svg xmlns="http://www.w3.org/2000/svg" xmlns:xlink="http://www.w3.org/1999/xlink" width="16" height="16" viewBox="0 0 16 16">
  <defs>
    <clipPath id="clip-warning_icon">
      <rect width="16" height="16"/>
    </clipPath>
  </defs>
  <g id="warning_icon" clip-path="url(#clip-warning_icon)">
    <g id="error_icon" transform="translate(1 1)">
      <path id="error_icon-2" data-name="error_icon" d="M15.713,13.759,12.206,7.685,8.7,1.611a.486.486,0,0,0-.841,0L4.352,7.685.844,13.759a.485.485,0,0,0,.421.728H15.292A.485.485,0,0,0,15.713,13.759ZM9.058,12.41a.779.779,0,0,1-1.558,0v-.354a.779.779,0,1,1,1.558,0Zm0-2.673a.779.779,0,0,1-1.558,0V5.14a.779.779,0,0,1,1.558,0Z" transform="translate(-0.779 -1.368)" fill="#f4c653"/>
    </g>
  </g>
</svg>
